<svg viewBox="0 0 605 791.908" xmlns="http://www.w3.org/2000/svg">
  <path d="M 554.574 99.881 L 415.175 99.881 C 406.298 43.486 358.793 0 300.49 0 C 242.186 0 193.766 43.486 185.803 99.881 L 48.419 99.881 C 21.692 99.881 0 121.67 0 148.311 L 0 197.748 C 0 222.467 17.757 242.241 41.554 245.171 L 41.554 727.64 C 41.554 763.253 70.203 791.908 105.808 791.908 L 498.192 791.908 C 533.797 791.908 562.446 763.253 562.446 727.64 L 562.446 246.087 C 586.151 242.15 604 222.376 604 198.664 L 604 149.227 C 602.993 121.67 581.209 99.881 554.574 99.881 Z M 300.49 36.62 C 339.024 36.62 370.693 63.353 377.557 99.881 L 222.415 99.881 C 230.287 64.268 261.956 36.62 300.49 36.62 Z M 524.918 728.739 C 524.918 743.57 513.02 756.387 497.277 756.387 L 104.801 756.387 C 89.973 756.387 77.159 744.486 77.159 728.739 L 77.159 247.185 L 524.004 247.185 L 524.004 728.739 L 524.918 728.739 Z M 566.382 197.748 C 566.382 204.706 561.439 209.65 554.482 209.65 L 48.327 209.65 C 41.37 209.65 36.428 204.706 36.428 197.748 L 36.428 148.311 C 36.428 141.353 41.37 136.409 48.327 136.409 L 553.476 136.409 C 560.432 136.409 565.374 141.353 565.374 148.311 L 565.374 197.748 L 566.382 197.748 Z M 159.168 661.45 L 159.168 349.081 C 159.168 339.194 167.04 331.32 176.925 331.32 C 186.811 331.32 194.682 339.193 194.682 349.081 L 194.682 661.45 C 194.682 671.337 186.811 679.211 176.925 679.211 C 167.041 680.309 159.168 671.337 159.168 661.45 Z M 284.656 661.45 L 284.656 349.081 C 284.656 339.194 292.527 331.32 302.412 331.32 C 312.297 331.32 320.169 339.193 320.169 349.081 L 320.169 661.45 C 320.169 671.337 312.298 679.211 302.412 679.211 C 292.618 680.309 284.656 671.337 284.656 661.45 Z M 410.233 661.45 L 410.233 349.081 C 410.233 339.194 418.104 331.32 427.99 331.32 C 437.875 331.32 445.746 339.193 445.746 349.081 L 445.746 661.45 C 445.746 671.337 437.875 679.211 427.99 679.211 C 419.112 680.309 410.233 671.337 410.233 661.45 Z"/>
</svg>
